<svg height="374pt" viewBox="0 0 374 374.24333" width="374pt" xmlns="http://www.w3.org/2000/svg"><path d="m272.019531 235.617188c-9.246093-33.105469-43.582031-52.449219-76.6875-43.203126-12.832031 3.585938-24.171875 11.191407-32.359375 21.699219-4.003906-1.332031-8.085937-2.410156-12.222656-3.230469-10.578125-2.269531-21.472656-2.691406-32.195312-1.246093l-50.066407 21.242187c-23.542969 18.902344-37.226562 47.476563-37.199219 77.667969v21.816406h298.679688s.519531-20.761719.519531-21.816406c-.03125-34.992187-24.320312-65.289063-58.46875-72.929687zm0 0" fill="#f38630"/><path d="m174.65625 268.03125c0-6.886719-25.117188-12.46875-56.101562-12.46875-30.980469 0-56.097657 5.582031-56.097657 12.46875s25.117188 12.464844 56.097657 12.464844c30.984374 0 56.101562-5.578125 56.101562-12.464844zm0 0" fill="#ba4e00"/><path d="m154.390625 257.433594c-43.503906-44.308594-47.921875-113.820313-10.378906-163.28125l2.007812-2.640625-8.726562-25.558594-6.425781 3.316406c-67.601563 34.804688-94.191407 117.820313-59.386719 185.425781 1.839843 3.566407 3.832031 7.054688 5.972656 10.449219l1.832031 2.886719h85.496094zm0 0" fill="#fa6900"/><g fill="#ba4e00"><path d="m110.394531 82.28125c-12.308593 9.363281-22.945312 20.746094-31.457031 33.660156l8.050781-4.652344 6.410157-3.695312 31.515624-18.195312c-4.578124-2.871094-9.445312-5.257813-14.519531-7.117188zm0 0"/><path d="m137.304688 65.933594-6.425782 3.316406c-1.003906.519531-1.953125 1.109375-2.9375 1.648438-.96875 3.242187-1.71875 6.546874-2.238281 9.890624-.308594-2.640624-.785156-5.257812-1.425781-7.835937-4.445313 2.613281-8.742188 5.472656-12.871094 8.566406l13.570312 7.839844c-.042968 1.554687-.191406 3.117187-.136718 4.664063l1.871094-1.097657 12.917968 7.480469c1.410156-2.09375 2.8125-4.195312 4.363282-6.234375l2.007812-2.640625zm0 0"/><path d="m82.453125 230.632812c0-3.445312-2.792969-6.234374-6.234375-6.234374h-15.976562c1.035156 4.214843 2.246093 8.371093 3.667968 12.464843h12.308594c3.441406 0 6.234375-2.789062 6.234375-6.230469zm0 0"/><path d="m81.15625 199.59375c0-3.441406-2.792969-6.230469-6.234375-6.230469h-18.636719c.050782 4.179688.324219 8.332031.746094 12.464844h17.890625c3.445313 0 6.234375-2.789063 6.234375-6.234375zm0 0"/><path d="m69.984375 174.53125c3.445313 0 6.234375-2.789062 6.234375-6.234375 0-3.441406-2.789062-6.230469-6.234375-6.230469h-10.539063c-.890624 4.089844-1.582031 8.234375-2.105468 12.429688.058594 0 .117187.035156.179687.035156zm0 0"/></g><path d="m221.4375 77.546875c-30.03125-17.328125-67.1875-16.609375-96.523438 1.871094l143.175782 82.648437c1.332031-34.648437-16.628906-67.183594-46.652344-84.519531zm0 0" fill="#69d2e7"/><path d="m184.257812 92.070312c1.703126-2.992187.65625-6.796874-2.335937-8.5-2.964844-1.683593-6.734375-.675781-8.457031 2.269532l-9.351563 16.203125 10.796875 6.234375zm0 0" fill="#4c98a7"/><path d="m211.25 107.65625c1.742188-2.972656.746094-6.789062-2.222656-8.53125-2.972656-1.742188-6.789063-.746094-8.53125 2.222656-.015625.023438-.027344.046875-.042969.074219l-9.347656 16.207031 10.792969 6.230469zm0 0" fill="#4c98a7"/><path d="m238.234375 123.238281c1.738281-2.96875.746094-6.789062-2.222656-8.53125-2.972657-1.742187-6.789063-.746093-8.53125 2.222657-.015625.023437-.027344.050781-.042969.074218l-9.351562 16.207032 10.796874 6.234374zm0 0" fill="#4c98a7"/><path d="m125.769531 79.898438 11.316407 6.53125 36.988281-21.359376c-16.984375.136719-33.617188 4.875-48.125 13.710938-.0625.382812-.125.75-.179688 1.117188zm0 0" fill="#4c98a7"/><path d="m6.414062 145.339844c-1.644531-42.679688 31.628907-78.613282 74.3125-80.253906 15.585938-.597657 30.988282 3.527343 44.1875 11.839843zm0 0" fill="#69d2e7"/><path d="m87.863281 65.183594 28.671875 16.566406 8.359375-4.824219c-11.152343-6.984375-23.894531-11.023437-37.03125-11.742187zm0 0" fill="#4c98a7"/><path d="m85.664062 81.710938c-1.722656-2.980469-5.535156-4.003907-8.519531-2.285157-2.980469 1.722657-4.003906 5.535157-2.285156 8.519531l7.738281 13.40625 10.800782-6.230468zm0 0" fill="#4c98a7"/><path d="m63.324219 94.609375c-1.722657-2.984375-5.535157-4.007813-8.519531-2.285156-2.984376 1.71875-4.003907 5.535156-2.285157 8.515625l7.738281 13.410156 10.792969-6.234375zm0 0" fill="#4c98a7"/><path d="m32.460938 105.230469c-2.980469 1.71875-4.003907 5.53125-2.28125 8.511719l7.742187 13.417968 10.800781-6.234375-7.742187-13.402343c-1.714844-2.984376-5.523438-4.015626-8.507813-2.300782-.003906.003906-.007812.003906-.011718.007813zm0 0" fill="#4c98a7"/><path d="m235.972656 17.390625c-33.902344-21.347656-78.6875-11.167969-100.035156 22.730469-7.792969 12.378906-11.660156 26.820312-11.097656 41.433594zm0 0" fill="#69d2e7"/><path d="m149.097656 43.601562c-2.980468 1.722657-4 5.535157-2.28125 8.515626l7.269532 12.570312 10.800781-6.230469-7.285157-12.574219c-1.722656-2.972656-5.523437-3.992187-8.503906-2.28125zm0 0" fill="#4c98a7"/><path d="m170.035156 31.503906c-2.980468 1.71875-4 5.53125-2.28125 8.511719l7.253906 12.574219 10.796876-6.234375-7.253907-12.570313c-1.722656-2.980468-5.535156-4.003906-8.515625-2.28125zm0 0" fill="#4c98a7"/><path d="m199.492188 21.691406c-1.699219-2.992187-5.503907-4.039062-8.496094-2.339844-2.996094 1.703126-4.042969 5.507813-2.339844 8.5.011719.023438.027344.050782.042969.074219l7.261719 12.589844 10.792968-6.230469zm0 0" fill="#4c98a7"/><path d="m31.289062 22.800781c28.925782-18.210937 67.136719-9.527343 85.351563 19.398438 6.644531 10.558593 9.949219 22.875 9.46875 35.34375zm0 0" fill="#69d2e7"/><path d="m85.695312 42.261719c1.699219-2.992188.652344-6.796875-2.339843-8.5-2.964844-1.6875-6.734375-.675781-8.457031 2.265625l-5.179688 8.964844 10.796875 6.234374zm0 0" fill="#4c98a7"/><path d="m65.535156 23.425781c-2.980468-1.726562-6.792968-.707031-8.515625 2.273438-.003906.003906-.003906.003906-.003906.007812l-5.15625 8.960938 10.796875 6.234375 5.171875-8.964844c1.71875-2.980469.695313-6.792969-2.289063-8.511719zm0 0" fill="#4c98a7"/><path d="m330.488281 49.867188c0-3.441407-2.792969-6.234376-6.234375-6.234376-7.160156-.003906-13.976562 3.078126-18.699218 8.460938-4.726563-5.382812-11.539063-8.464844-18.699219-8.460938-3.445313 0-6.234375 2.792969-6.234375 6.234376 0 3.441406 2.792968 6.230468 6.234375 6.230468 6.882812 0 12.464843 5.582032 12.464843 12.46875 0 3.441406 2.792969 6.234375 6.234376 6.234375 3.441406 0 6.230468-2.792969 6.230468-6.234375 0-6.886718 5.582032-12.46875 12.46875-12.46875 3.441406 0 6.234375-2.789062 6.234375-6.230468zm0 0" fill="#f38630"/><path d="m367.886719 87.265625c-7.160157-.003906-13.976563 3.078125-18.699219 8.457031-4.726562-5.378906-11.539062-8.460937-18.699219-8.457031-3.445312 0-6.234375 2.789063-6.234375 6.234375 0 3.441406 2.792969 6.230469 6.234375 6.230469 6.882813 0 12.464844 5.582031 12.464844 12.46875 0 3.441406 2.792969 6.230469 6.234375 6.230469s6.230469-2.789063 6.230469-6.230469c0-6.886719 5.582031-12.46875 12.46875-12.46875 3.441406 0 6.234375-2.789063 6.234375-6.230469 0-3.445312-2.792969-6.234375-6.234375-6.234375zm0 0" fill="#f38630"/><path d="m324.253906 12.46875c6.882813 0 12.464844 5.578125 12.464844 12.464844 0 3.441406 2.792969 6.234375 6.234375 6.234375s6.234375-2.792969 6.234375-6.234375c0-6.886719 5.578125-12.464844 12.464844-12.464844 3.441406 0 6.234375-2.792969 6.234375-6.234375s-2.792969-6.234375-6.234375-6.234375c-7.160156-.00390625-13.976563 3.078125-18.699219 8.457031-4.726563-5.378906-11.539063-8.46093725-18.699219-8.457031-3.445312 0-6.234375 2.792969-6.234375 6.234375s2.792969 6.234375 6.234375 6.234375zm0 0" fill="#f38630"/><path d="m355.519531 361.527344c3.386719 0 6.128907-2.746094 6.132813-6.132813v-56.199219c.015625 6.886719-5.554688 12.480469-12.4375 12.496094-1.710938.003906-3.40625-.347656-4.976563-1.027344-4.566406-2.054687-7.507812-6.589843-7.519531-11.597656-.035156-3.445312-2.855469-6.207031-6.296875-6.167968-3.441406.035156-6.203125 2.855468-6.167969 6.296874.015625 6.886719-5.554687 12.480469-12.4375 12.496094-1.714844.003906-3.40625-.347656-4.976562-1.027344-4.570313-2.054687-7.507813-6.589843-7.519532-11.597656-.035156-3.445312-2.855468-6.207031-6.296874-6.167968-3.445313.035156-6.207032 2.855468-6.167969 6.296874.011719 6.886719-5.554688 12.480469-12.441407 12.496094-1.710937.003906-3.40625-.347656-4.976562-1.027344-4.566406-2.054687-7.507812-6.589843-7.515625-11.597656-.035156-3.445312-2.855469-6.207031-6.300781-6.167968-3.441406.035156-6.203125 2.855468-6.167969 6.296874.015625 6.886719-5.554687 12.476563-12.441406 12.492188-1.738281.003906-3.460938-.359375-5.054688-1.058594-4.519531-2.25-7.390625-6.847656-7.433593-11.894531-.128907-3.441406-3.023438-6.128906-6.464844-6.003906-3.445313.128906-6.128906 3.019531-6.003906 6.464843.023437 6.882813-5.542969 12.484376-12.425782 12.507813-1.925781.003906-3.828125-.4375-5.554687-1.289063-4.25-2.195312-6.925781-6.566406-6.953125-11.34375-.03125-3.445312-2.851563-6.207031-6.296875-6.171874-3.441407.035156-6.203125 2.851562-6.167969 6.296874.011719 6.886719-5.558594 12.476563-12.441406 12.492188-1.742188.003906-3.464844-.359375-5.054688-1.0625-4.519531-2.25-7.394531-6.84375-7.4375-11.890625-.128906-3.445313-3.023437-6.132813-6.464844-6.003906-3.441406.125-6.128906 3.019531-6.003906 6.464843.015625 6.882813-5.554687 12.476563-12.441406 12.488282-1.738281.007812-3.460938-.355469-5.054688-1.058594-4.519531-2.25-7.390624-6.84375-7.433593-11.894531-.128907-3.441407-3.023438-6.128907-6.464844-6-3.445313.125-6.128906 3.019531-6.003906 6.460937.015625 6.886719-5.554688 12.480469-12.441407 12.492188-1.742187.003906-3.460937-.355469-5.054687-1.058594-4.519531-2.25-7.394531-6.847656-7.4375-11.894531-.046875-3.441407-2.875-6.195313-6.316406-6.148438-3.441407.046875-6.195313 2.875-6.148438 6.316407.078125 6.886718-5.4375 12.535156-12.320312 12.613281-6.886719.082031-12.53125-5.433594-12.613281-12.320313 0-3.441406-2.792969-6.230468-6.234376-6.230468-3.441406 0-6.230468 2.789062-6.230468 6.230468 0 6.886719-5.582032 12.46875-12.46875 12.46875v49.867188zm0 0" fill="#a7dbd8"/><path d="m330.488281 349.0625c-10.328125 0-18.703125-8.371094-18.703125-18.699219 0-3.441406-2.789062-6.234375-6.230468-6.234375-3.445313 0-6.234376 2.792969-6.234376 6.234375 0 10.328125-8.371093 18.699219-18.699218 18.699219s-18.699219-8.371094-18.699219-18.699219c0-3.441406-2.792969-6.234375-6.234375-6.234375s-6.230469 2.792969-6.230469 6.234375c0 10.328125-8.375 18.699219-18.703125 18.699219-10.324218 0-18.699218-8.371094-18.699218-18.699219 0-3.441406-2.789063-6.234375-6.230469-6.234375-3.445313 0-6.234375 2.792969-6.234375 6.234375 0 10.328125-8.371094 18.699219-18.699219 18.699219s-18.699219-8.371094-18.699219-18.699219c0-3.441406-2.792968-6.234375-6.234375-6.234375-3.441406 0-6.234375 2.792969-6.234375 6.234375 0 10.328125-8.371094 18.699219-18.699218 18.699219-10.328126 0-18.699219-8.371094-18.699219-18.699219 0-3.441406-2.789063-6.234375-6.234375-6.234375-3.441406 0-6.230469 2.792969-6.230469 6.234375 0 10.328125-8.375 18.699219-18.699219 18.699219-10.328125 0-18.703125-8.371094-18.703125-18.699219 0-3.441406-2.789062-6.234375-6.230469-6.234375-3.445312 0-6.234374 2.792969-6.234374 6.234375 0 10.328125-8.371094 18.699219-18.699219 18.699219s-18.699219-8.371094-18.699219-18.699219v31.167969h317.894531c3.445313 0 6.234375-2.792969 6.234375-6.234375s-2.792968-6.234375-6.234375-6.234375zm0 0" fill="#69d2e7"/><path d="m330.488281 361.527344c-10.328125 0-18.703125-8.371094-18.703125-18.699219 0-3.441406-2.789062-6.230469-6.230468-6.230469-3.445313 0-6.234376 2.789063-6.234376 6.230469 0 10.328125-8.371093 18.699219-18.699218 18.699219s-18.699219-8.371094-18.699219-18.699219c0-3.441406-2.792969-6.230469-6.234375-6.230469s-6.230469 2.789063-6.230469 6.230469c0 10.328125-8.375 18.699219-18.703125 18.699219-10.324218 0-18.699218-8.371094-18.699218-18.699219 0-3.441406-2.789063-6.230469-6.230469-6.230469-3.445313 0-6.234375 2.789063-6.234375 6.230469 0 10.328125-8.371094 18.699219-18.699219 18.699219s-18.699219-8.371094-18.699219-18.699219c0-3.441406-2.792968-6.230469-6.234375-6.230469-3.441406 0-6.234375 2.789063-6.234375 6.230469 0 10.328125-8.371094 18.699219-18.699218 18.699219-10.328126 0-18.699219-8.371094-18.699219-18.699219 0-3.441406-2.789063-6.230469-6.234375-6.230469-3.441406 0-6.230469 2.789063-6.230469 6.230469 0 10.328125-8.375 18.699219-18.699219 18.699219-10.328125 0-18.703125-8.371094-18.703125-18.699219 0-3.441406-2.789062-6.230469-6.230469-6.230469-3.445312 0-6.234374 2.789063-6.234374 6.230469 0 10.328125-8.371094 18.699219-18.699219 18.699219s-18.699219-8.371094-18.699219-18.699219c0-3.441406-2.792969-6.230469-6.234375-6.230469s-6.230469 2.789063-6.230469 6.230469c-.050781 17.160156 13.820313 31.113281 30.980469 31.164063 9.914063.027343 19.242187-4.671876 25.117187-12.65625 10.0625 13.769531 29.382813 16.777343 43.152344 6.714843 2.570313-1.878906 4.835938-4.144531 6.714844-6.714843 10.0625 13.769531 29.378906 16.777343 43.152344 6.714843 2.570312-1.878906 4.835937-4.144531 6.714844-6.714843 10.0625 13.769531 29.378906 16.777343 43.148437 6.714843 2.574219-1.878906 4.839844-4.144531 6.71875-6.714843 10.058594 13.769531 29.378906 16.777343 43.148437 6.714843 2.574219-1.878906 4.839844-4.144531 6.714844-6.714843 10.0625 13.769531 29.382813 16.777343 43.152344 6.714843 2.570312-1.878906 4.835938-4.144531 6.714844-6.714843 5.835937 7.933593 15.085937 12.632812 24.933594 12.660156 3.441406 0 6.234374-2.792969 6.234374-6.234375-.007812-3.441407-2.796874-6.234375-6.238281-6.234375zm0 0"/><path d="m230.753906 317.894531c0 3.445313 2.792969 6.234375 6.234375 6.234375 7.1875-.023437 14.011719-3.164062 18.699219-8.613281 8.832031 10.328125 24.359375 11.539063 34.6875 2.710937.972656-.832031 1.878906-1.738281 2.710938-2.710937 4.6875 5.449219 11.511718 8.589844 18.699218 8.613281 3.445313 0 6.234375-2.789062 6.234375-6.234375 0-3.441406-2.789062-6.230469-6.234375-6.230469-6.882812 0-12.464844-5.582031-12.464844-12.46875 0-3.441406-2.792968-6.230468-6.234374-6.230468-3.441407 0-6.230469 2.789062-6.230469 6.230468 0 6.886719-5.582031 12.46875-12.46875 12.46875s-12.464844-5.582031-12.464844-12.46875c0-3.441406-2.792969-6.230468-6.234375-6.230468s-6.234375 2.789062-6.234375 6.230468c0 6.886719-5.582031 12.46875-12.464844 12.46875-3.445312 0-6.234375 2.789063-6.234375 6.230469zm0 0"/><path d="m367.886719 292.964844c-3.441407 0-6.234375 2.789062-6.234375 6.230468 0 6.886719-5.582032 12.46875-12.464844 12.46875-3.445312 0-6.234375 2.789063-6.234375 6.230469 0 3.445313 2.792969 6.234375 6.234375 6.234375 13.769531 0 24.933594-11.164062 24.933594-24.933594 0-3.441406-2.792969-6.230468-6.234375-6.230468zm0 0"/><path d="m174.65625 299.195312c0 6.886719-5.582031 12.46875-12.46875 12.46875-3.441406 0-6.230469 2.789063-6.230469 6.230469 0 3.445313 2.789063 6.234375 6.230469 6.234375 7.1875-.023437 14.011719-3.164062 18.699219-8.613281 8.953125 10.386719 24.628906 11.550781 35.015625 2.597656 5.5-4.742187 8.648437-11.65625 8.617187-18.917969 0-3.441406-2.789062-6.230468-6.230469-6.230468-3.445312 0-6.234374 2.789062-6.234374 6.230468 0 6.886719-5.582032 12.46875-12.46875 12.46875-6.882813 0-12.464844-5.582031-12.464844-12.46875 0-3.441406-2.792969-6.230468-6.234375-6.230468-3.441407 0-6.230469 2.789062-6.230469 6.230468zm0 0"/><path d="m49.988281 324.128906c7.1875-.023437 14.011719-3.164062 18.699219-8.613281 8.832031 10.328125 24.363281 11.539063 34.6875 2.710937.976562-.832031 1.882812-1.738281 2.714844-2.710937 8.949218 10.386719 24.625 11.550781 35.011718 2.597656 5.503907-4.742187 8.652344-11.65625 8.621094-18.917969 0-3.441406-2.792968-6.230468-6.234375-6.230468-3.441406 0-6.234375 2.789062-6.234375 6.230468 0 6.886719-5.578125 12.46875-12.464844 12.46875-6.886718 0-12.46875-5.582031-12.46875-12.46875 0-3.441406-2.789062-6.230468-6.230468-6.230468s-6.234375 2.789062-6.234375 6.230468c0 6.886719-5.582031 12.46875-12.464844 12.46875-6.886719 0-12.46875-5.582031-12.46875-12.46875 0-3.441406-2.792969-6.230468-6.234375-6.230468s-6.230469 2.789062-6.230469 6.230468c0 6.886719-5.582031 12.46875-12.46875 12.46875-3.441406 0-6.230469 2.789063-6.230469 6.230469 0 3.445313 2.789063 6.234375 6.230469 6.234375zm0 0"/><path d="m276.921875 230.386719c-9.496094-27.746094-35.542969-46.417969-64.867187-46.507813-19.589844-.035156-38.25 8.367188-51.199219 23.066406-2.738281-.789062-5.667969-1.496093-8.859375-2.152343-6.898438-1.449219-13.925782-2.191407-20.976563-2.210938-2.492187 0-5.164062.148438-7.914062.378907-2.996094-10.8125-4.527344-21.976563-4.550781-33.191407-.050782-26.285156 8.261718-51.90625 23.730468-73.15625l122.683594 70.855469c2.980469 1.722656 6.792969.703125 8.515625-2.273438.511719-.882812.796875-1.875.832031-2.894531 2.15625-54.957031-40.652344-101.257812-95.609375-103.410156-.6875-.027344-1.371093-.050781-2.058593-.0625l6.859374-3.960937 55.550782-32.070313c2.980468-1.722656 4.003906-5.535156 2.28125-8.515625-.507813-.882812-1.222656-1.625-2.082032-2.164062-36.808593-23.164063-85.421874-12.1093755-108.589843 24.695312-1.863281 2.960938-3.527344 6.042969-4.980469 9.226562-15.917969-33.921874-56.324219-48.519531-90.246094-32.601562-2.570312 1.207031-5.0625 2.570312-7.460937 4.089844-2.917969 1.828125-3.796875 5.675781-1.96875 8.59375.539062.859375 1.28125 1.574218 2.160156 2.082031l53.097656 30.65625c-46.097656 1.296875-82.410156 39.71875-81.113281 85.8125.007812.300781.019531.605469.027344.90625.128906 3.4375 3.019531 6.125 6.460937 6 1.015625-.035156 2.007813-.324219 2.890625-.832031l75.851563-43.796875c-26.972657 34.519531-35.886719 79.828125-23.996094 121.992187-23.074219 20.015625-36.332031 49.058594-36.332031 79.605469 0 .746094.046875 1.476563.097656 2.207031l.058594 1.089844c.097656 3.371094 2.859375 6.054688 6.230468 6.050781h.195313c3.4375-.101562 6.140625-2.96875 6.042969-6.40625 0-.535156-.046875-1.070312-.085938-1.601562-.035156-.53125-.074218-.886719-.074218-1.339844-.015626-25.152344 10.164062-49.238281 28.210937-66.757813 3.160156 8.132813 7.089844 15.953126 11.730469 23.34375 1.839844 2.910157 5.691406 3.78125 8.605468 1.945313 2.910157-1.839844 3.78125-5.691406 1.941407-8.605469-4.296875-6.835937-7.925781-14.074218-10.824219-21.609375h10.203125c3.441406 0 6.230469-2.792969 6.230469-6.234375s-2.789063-6.230468-6.230469-6.230468h-14.300781c-1.640625-6.09375-2.820313-12.300782-3.527344-18.570313h16.53125c3.441406 0 6.230469-2.792969 6.230469-6.234375s-2.789063-6.230469-6.230469-6.230469h-17.34375c0-.570312-.058594-1.125-.058594-1.691406 0-5.730469.394532-11.457031 1.171875-17.140625h11.292969c3.441406 0 6.234375-2.789062 6.234375-6.234375 0-3.441406-2.792969-6.230469-6.234375-6.230469h-8.875c7.355469-30.429687 25.902344-56.972656 51.941406-74.351562.207032 0 .410156.074218.625.074218.574219-.003906 1.148438-.089843 1.699219-.246093l4.917969 2.839843c-38.535156 54.253907-32.621094 128.328126 14.03125 175.777344 2.445312 2.425782 6.394531 2.40625 8.816406-.035156 2.375-2.398438 2.414062-6.246094.085938-8.691406-11.859376-12.089844-21.132813-26.460938-27.265626-42.25 1.316407-.058594 2.648438-.136719 3.898438-.136719 6.207031.019531 12.402344.671875 18.480469 1.941406 3.882812.769531 7.710937 1.78125 11.46875 3.027344 2.507812.851563 5.28125.023437 6.914062-2.0625 18.996094-24.40625 54.179688-28.792969 78.585938-9.796875 9.460937 7.367188 16.308593 17.570312 19.539062 29.121094.617188 2.207031 2.402344 3.898437 4.640625 4.398437 31.226563 7.140625 53.425782 34.839844 53.59375 66.871094 0 .503906-.035156.996094-.074218 1.492187l-.074219 1.371094c-.144531 3.4375 2.527343 6.34375 5.964843 6.488282h.003907.261719c3.347656.003906 6.097656-2.636719 6.234374-5.980469l.054688-1.03125c.058594-.773438.109375-1.554688.109375-2.339844-.207031-36.5-24.632813-68.421875-59.8125-78.160156zm-58.589844-147.433594c24.734375 14.253906 40.90625 39.730469 43.277344 68.179687l-29.609375-17.117187 6.234375-10.796875c1.742187-2.96875.746094-6.789062-2.222656-8.53125-2.96875-1.738281-6.789063-.746094-8.53125 2.222656-.015625.027344-.027344.050782-.042969.074219l-6.230469 10.796875-16.207031-9.351562 6.230469-10.792969c1.742187-2.972657.746093-6.789063-2.222657-8.53125-2.96875-1.742188-6.789062-.746094-8.53125 2.222656-.011718.023437-.027343.046875-.039062.074219l-6.234375 10.792968-16.207031-9.347656 6.234375-10.796875c1.738281-2.96875.742187-6.789062-2.226563-8.527343-2.96875-1.742188-6.789062-.746094-8.527344 2.222656-.015624.023437-.03125.050781-.042968.070312l-6.234375 10.796875-28.050781-16.203125 8.453124-4.882812c23.554688-7.703125 49.277344-5.003906 70.71875 7.425781zm-54.160156-61.59375c17.957031-10.386719 39.75-11.753906 58.867187-3.6875l-19.398437 11.21875-4.148437-7.167969c-1.738282-2.96875-5.558594-3.964844-8.527344-2.222656-2.941406 1.722656-3.953125 5.492188-2.265625 8.457031l4.144531 7.175781-10.15625 5.859376-4.136719-7.175782c-1.703125-2.992187-5.507812-4.039062-8.5-2.335937-2.992187 1.699219-4.039062 5.503906-2.339843 8.496093.015624.027344.027343.050782.042968.074219l4.140625 7.171875-10.15625 5.867188-4.140625-7.175782c-1.71875-2.984374-5.53125-4.003906-8.515625-2.285156-2.984375 1.722656-4.003906 5.535156-2.285156 8.519532l4.140625 7.171874-8.578125 4.949219c-3.515625 1.207031-6.957031 2.609375-10.316406 4.203125 0-.132812-.042969-.257812-.054688-.386718 3.15625-19.621094 14.972657-36.78125 32.183594-46.726563zm-72.078125 5.613281c14.523438 8.363282 24.492188 22.839844 27.125 39.394532l-24.9375-14.398438 4.75-8.222656c1.742188-2.96875.746094-6.789063-2.222656-8.53125-2.972656-1.738282-6.789063-.742188-8.53125 2.226562-.011719.023438-.027344.046875-.039063.070313l-4.757812 8.222656-7.074219-4.082031 4.75-8.226563c1.703125-2.996093.65625-6.800781-2.335938-8.5-2.964843-1.6875-6.734374-.675781-8.460937 2.265625l-4.785156 8.226563-21.164063-12.230469c15.652344-5.996094 33.175782-4.605469 47.683594 3.789062zm-43.972656 53.824219c19.511718-11.292969 43.226562-12.640625 63.894531-3.636719l-21.734375 12.597656-4.621094-8.007812c-1.71875-2.984375-5.53125-4.003906-8.515625-2.285156-2.984375 1.722656-4.003906 5.535156-2.285156 8.519531l4.625 8.007813-11.542969 6.632812-4.621094-8.007812c-1.71875-2.984376-5.535156-4.007813-8.515624-2.285157-2.984376 1.71875-4.007813 5.535157-2.285157 8.515625l4.625 8.011719-11.519531 6.664063-4.625-8.003907c-1.722656-2.984375-5.535156-4.007812-8.519531-2.285156-2.980469 1.71875-4.003907 5.535156-2.28125 8.515625l4.625 8.003906-21.753907 12.5625c2.523438-22.394531 15.53125-42.257812 35.050782-53.519531zm0 0"/><path d="m286.851562 56.097656c6.886719 0 12.46875 5.582032 12.46875 12.46875 0 3.441406 2.789063 6.234375 6.234376 6.234375 3.441406 0 6.230468-2.792969 6.230468-6.234375 0-6.886718 5.582032-12.46875 12.46875-12.46875 3.441406 0 6.230469-2.789062 6.230469-6.230468 0-3.441407-2.789063-6.234376-6.230469-6.234376-7.160156-.003906-13.976562 3.078126-18.699218 8.460938-4.726563-5.382812-11.542969-8.464844-18.703126-8.460938-3.441406 0-6.230468 2.792969-6.230468 6.234376 0 3.441406 2.789062 6.230468 6.230468 6.230468zm0 0"/><path d="m349.1875 118.433594c3.441406 0 6.230469-2.792969 6.230469-6.234375 0-6.886719 5.582031-12.46875 12.46875-12.46875 3.441406 0 6.234375-2.789063 6.234375-6.230469s-2.792969-6.234375-6.234375-6.234375c-7.160157-.003906-13.976563 3.078125-18.699219 8.460937-4.726562-5.382812-11.539062-8.464843-18.699219-8.460937-3.445312 0-6.234375 2.792969-6.234375 6.234375s2.792969 6.230469 6.234375 6.230469c6.882813 0 12.464844 5.582031 12.464844 12.46875 0 3.441406 2.789063 6.234375 6.234375 6.234375zm0 0"/><path d="m324.253906 12.46875c6.882813 0 12.464844 5.578125 12.464844 12.464844 0 3.441406 2.792969 6.234375 6.234375 6.234375s6.234375-2.792969 6.234375-6.234375c0-6.886719 5.578125-12.464844 12.464844-12.464844 3.441406 0 6.234375-2.792969 6.234375-6.234375s-2.792969-6.234375-6.234375-6.234375c-7.160156-.00390625-13.976563 3.078125-18.699219 8.457031-4.726563-5.378906-11.539063-8.46093725-18.699219-8.457031-3.445312 0-6.234375 2.792969-6.234375 6.234375s2.792969 6.234375 6.234375 6.234375zm0 0"/><path d="m187.121094 236.871094c0 3.441406-2.789063 6.230468-6.234375 6.230468-3.441407 0-6.230469-2.789062-6.230469-6.230468s2.789062-6.234375 6.230469-6.234375c3.445312 0 6.234375 2.792969 6.234375 6.234375zm0 0"/><path d="m243.21875 249.335938c0 3.445312-2.789062 6.234374-6.230469 6.234374-3.441406 0-6.234375-2.789062-6.234375-6.234374 0-3.441407 2.792969-6.230469 6.234375-6.230469 3.441407 0 6.230469 2.789062 6.230469 6.230469zm0 0"/></svg>